<svg width="1351" height="651" xmlns="http://www.w3.org/2000/svg"><g><path d="M-96,-34L-104,862L-94,283Z" fill="#a4d4f5" stroke="#a4d4f5"/><path d="M-96,-34L-94,283L-16,29Z" fill="#fdffff" stroke="#fdffff"/><path d="M-96,-34L-16,29L133,-67Z" fill="#fbfdff" stroke="#fbfdff"/><path d="M-96,-34L133,-67L187,-119Z" fill="#f5f9fd" stroke="#f5f9fd"/><path d="M133,-67L-16,29L122,34Z" fill="#f5f9fd" stroke="#f5f9fd"/><path d="M133,-67L122,34L276,35Z" fill="#edf4fb" stroke="#edf4fb"/><path d="M133,-67L276,35L187,-119Z" fill="#ebf3fa" stroke="#ebf3fa"/><path d="M187,-119L276,35L326,-98Z" fill="#e6eff8" stroke="#e6eff8"/><path d="M187,-119L326,-98L1018,-105Z" fill="#c5dfee" stroke="#c5dfee"/><path d="M187,-119L1018,-105L1094,-110Z" fill="#9fc7e2" stroke="#9fc7e2"/><path d="M326,-98L276,35L401,26Z" fill="#deebf6" stroke="#deebf6"/><path d="M326,-98L401,26L508,-19Z" fill="#d4e7f2" stroke="#d4e7f2"/><path d="M326,-98L508,-19L646,-69Z" fill="#c7e1ef" stroke="#c7e1ef"/><path d="M326,-98L646,-69L1018,-105Z" fill="#add1e7" stroke="#add1e7"/><path d="M508,-19L401,26L496,39Z" fill="#cce3f0" stroke="#cce3f0"/><path d="M508,-19L496,39L646,-69Z" fill="#bedbed" stroke="#bedbed"/><path d="M646,-69L496,39L718,40Z" fill="#b3d5ea" stroke="#b3d5ea"/><path d="M646,-69L718,40L853,-74Z" fill="#a2cae3" stroke="#a2cae3"/><path d="M646,-69L853,-74L1018,-105Z" fill="#97bfde" stroke="#97bfde"/><path d="M853,-74L718,40L771,71Z" fill="#9dc5e1" stroke="#9dc5e1"/><path d="M853,-74L771,71L1018,43Z" fill="#92badb" stroke="#92badb"/><path d="M853,-74L1018,43L1018,-105Z" fill="#8bb2d5" stroke="#8bb2d5"/><path d="M1018,-105L1018,43L1094,-110Z" fill="#84a9ce" stroke="#84a9ce"/><path d="M1094,-110L1018,43L1078,65Z" fill="#84a7cc" stroke="#84a7cc"/><path d="M1094,-110L1078,65L1216,-104Z" fill="#84a0c1" stroke="#84a0c1"/><path d="M1094,-110L1216,-104L1611,-94Z" fill="#848ca4" stroke="#848ca4"/><path d="M1216,-104L1078,65L1308,55Z" fill="#8498b5" stroke="#8498b5"/><path d="M1216,-104L1308,55L1483,-85Z" fill="#84899f" stroke="#84899f"/><path d="M1216,-104L1483,-85L1611,-94Z" fill="#84808f" stroke="#84808f"/><path d="M1483,-85L1308,55L1456,121Z" fill="#848092" stroke="#848092"/><path d="M1483,-85L1456,121L1571,19Z" fill="#848084" stroke="#848084"/><path d="M1483,-85L1571,19L1611,-94Z" fill="#848080" stroke="#848080"/><path d="M1611,-94L1571,19L1634,374Z" fill="#808080" stroke="#808080"/><path d="M-16,29L-94,283L134,167Z" fill="#ecfbff" stroke="#ecfbff"/><path d="M-16,29L134,167L122,34Z" fill="#f4f9fd" stroke="#f4f9fd"/><path d="M122,34L134,167L276,35Z" fill="#ecf4fb" stroke="#ecf4fb"/><path d="M276,35L134,167L258,198Z" fill="#e1f1f9" stroke="#e1f1f9"/><path d="M276,35L258,198L401,26Z" fill="#dfedf7" stroke="#dfedf7"/><path d="M401,26L258,198L425,280Z" fill="#cae7f4" stroke="#cae7f4"/><path d="M401,26L425,280L496,39Z" fill="#cbe5f1" stroke="#cbe5f1"/><path d="M496,39L425,280L544,239Z" fill="#b1ddef" stroke="#b1ddef"/><path d="M496,39L544,239L718,40Z" fill="#b3d8eb" stroke="#b3d8eb"/><path d="M718,40L544,239L667,259Z" fill="#9acfe8" stroke="#9acfe8"/><path d="M718,40L667,259L771,71Z" fill="#9fcce4" stroke="#9fcce4"/><path d="M771,71L667,259L814,210Z" fill="#8cc5e3" stroke="#8cc5e3"/><path d="M771,71L814,210L1018,43Z" fill="#8fbcdc" stroke="#8fbcdc"/><path d="M1018,43L814,210L1023,257Z" fill="#7ab0d6" stroke="#7ab0d6"/><path d="M1018,43L1023,257L1073,207Z" fill="#73a7cf" stroke="#73a7cf"/><path d="M1018,43L1073,207L1078,65Z" fill="#7fa8cd" stroke="#7fa8cd"/><path d="M1078,65L1073,207L1306,174Z" fill="#799dbd" stroke="#799dbd"/><path d="M1078,65L1306,174L1308,55Z" fill="#8094b0" stroke="#8094b0"/><path d="M1308,55L1306,174L1456,121Z" fill="#7e879c" stroke="#7e879c"/><path d="M1456,121L1306,174L1463,259Z" fill="#6d7d93" stroke="#6d7d93"/><path d="M1456,121L1463,259L1538,203Z" fill="#6a7b87" stroke="#6a7b87"/><path d="M1456,121L1538,203L1571,19Z" fill="#7e8081" stroke="#7e8081"/><path d="M1571,19L1538,203L1634,374Z" fill="#687b80" stroke="#687b80"/><path d="M-94,283L-104,862L-88,560Z" fill="#919fc3" stroke="#919fc3"/><path d="M-94,283L-88,560L-36,384Z" fill="#9acaef" stroke="#9acaef"/><path d="M-94,283L-36,384L31,333Z" fill="#afddf9" stroke="#afddf9"/><path d="M-94,283L31,333L134,167Z" fill="#c5eaff" stroke="#c5eaff"/><path d="M134,167L31,333L220,367Z" fill="#b1defc" stroke="#b1defc"/><path d="M134,167L220,367L258,198Z" fill="#bde5fa" stroke="#bde5fa"/><path d="M258,198L220,367L425,280Z" fill="#a6d7f7" stroke="#a6d7f7"/><path d="M425,280L220,367L373,418Z" fill="#88c4ed" stroke="#88c4ed"/><path d="M425,280L373,418L468,390Z" fill="#7abde8" stroke="#7abde8"/><path d="M425,280L468,390L544,239Z" fill="#85c7ed" stroke="#85c7ed"/><path d="M544,239L468,390L632,428Z" fill="#69b5e4" stroke="#69b5e4"/><path d="M544,239L632,428L667,259Z" fill="#6db9e8" stroke="#6db9e8"/><path d="M667,259L632,428L801,399Z" fill="#4fa5dc" stroke="#4fa5dc"/><path d="M667,259L801,399L814,210Z" fill="#60b0e2" stroke="#60b0e2"/><path d="M814,210L801,399L1023,257Z" fill="#53a3db" stroke="#53a3db"/><path d="M1023,257L801,399L1023,412Z" fill="#368ccd" stroke="#368ccd"/><path d="M1023,257L1023,412L1130,367Z" fill="#3182c5" stroke="#3182c5"/><path d="M1023,257L1130,367L1073,207Z" fill="#4991ca" stroke="#4991ca"/><path d="M1073,207L1130,367L1306,174Z" fill="#558dba" stroke="#558dba"/><path d="M1306,174L1130,367L1271,421Z" fill="#3975ac" stroke="#3975ac"/><path d="M1306,174L1271,421L1463,259Z" fill="#46719d" stroke="#46719d"/><path d="M1463,259L1271,421L1446,406Z" fill="#2b5a8c" stroke="#2b5a8c"/><path d="M1463,259L1446,406L1634,374Z" fill="#305b7b" stroke="#305b7b"/><path d="M1463,259L1634,374L1538,203Z" fill="#486a80" stroke="#486a80"/><path d="M-36,384L-88,560L24,557Z" fill="#90b1de" stroke="#90b1de"/><path d="M-36,384L24,557L31,333Z" fill="#91c3ed" stroke="#91c3ed"/><path d="M31,333L24,557L220,367Z" fill="#8cc0eb" stroke="#8cc0eb"/><path d="M220,367L24,557L248,515Z" fill="#80acde" stroke="#80acde"/><path d="M220,367L248,515L373,418Z" fill="#78b2e4" stroke="#78b2e4"/><path d="M373,418L248,515L349,534Z" fill="#72a1d7" stroke="#72a1d7"/><path d="M373,418L349,534L468,390Z" fill="#69a8dc" stroke="#69a8dc"/><path d="M468,390L349,534L560,551Z" fill="#6098d0" stroke="#6098d0"/><path d="M468,390L560,551L632,428Z" fill="#5199d4" stroke="#5199d4"/><path d="M632,428L560,551L641,513Z" fill="#4689ca" stroke="#4689ca"/><path d="M632,428L641,513L801,399Z" fill="#3c8fd0" stroke="#3c8fd0"/><path d="M801,399L641,513L862,495Z" fill="#3281c7" stroke="#3281c7"/><path d="M801,399L862,495L1023,412Z" fill="#257cc7" stroke="#257cc7"/><path d="M1023,412L862,495L960,579Z" fill="#1f67b6" stroke="#1f67b6"/><path d="M1023,412L960,579L1109,523Z" fill="#175bad" stroke="#175bad"/><path d="M1023,412L1109,523L1130,367Z" fill="#1868b4" stroke="#1868b4"/><path d="M1130,367L1109,523L1224,527Z" fill="#1756a1" stroke="#1756a1"/><path d="M1130,367L1224,527L1271,421Z" fill="#185aa0" stroke="#185aa0"/><path d="M1271,421L1224,527L1403,527Z" fill="#164186" stroke="#164186"/><path d="M1271,421L1403,527L1446,406Z" fill="#174482" stroke="#174482"/><path d="M1446,406L1403,527L1541,533Z" fill="#16356b" stroke="#16356b"/><path d="M1446,406L1541,533L1634,374Z" fill="#18436b" stroke="#18436b"/><path d="M1634,374L1541,533L1576,732Z" fill="#16254d" stroke="#16254d"/><path d="M-88,560L-104,862L-48,629Z" fill="#918094" stroke="#918094"/><path d="M-88,560L-48,629L24,557Z" fill="#909bbe" stroke="#909bbe"/><path d="M24,557L-48,629L48,636Z" fill="#8d92b4" stroke="#8d92b4"/><path d="M24,557L48,636L229,624Z" fill="#858db2" stroke="#858db2"/><path d="M24,557L229,624L248,515Z" fill="#7f95c0" stroke="#7f95c0"/><path d="M248,515L229,624L349,534Z" fill="#7791c0" stroke="#7791c0"/><path d="M349,534L229,624L349,653Z" fill="#7483ad" stroke="#7483ad"/><path d="M349,534L349,653L560,551Z" fill="#6584b1" stroke="#6584b1"/><path d="M560,551L349,653L467,731Z" fill="#5f6f95" stroke="#5f6f95"/><path d="M560,551L467,731L711,709Z" fill="#4b5f89" stroke="#4b5f89"/><path d="M560,551L711,709L641,513Z" fill="#426da4" stroke="#426da4"/><path d="M641,513L711,709L783,629Z" fill="#385f95" stroke="#385f95"/><path d="M641,513L783,629L862,495Z" fill="#316db0" stroke="#316db0"/><path d="M862,495L783,629L960,579Z" fill="#265ca1" stroke="#265ca1"/><path d="M960,579L783,629L810,777Z" fill="#28447b" stroke="#28447b"/><path d="M960,579L810,777L1011,734Z" fill="#203668" stroke="#203668"/><path d="M960,579L1011,734L1109,523Z" fill="#183f82" stroke="#183f82"/><path d="M1109,523L1011,734L1152,730Z" fill="#162a65" stroke="#162a65"/><path d="M1109,523L1152,730L1224,527Z" fill="#163576" stroke="#163576"/><path d="M1224,527L1152,730L1280,651Z" fill="#16235b" stroke="#16235b"/><path d="M1224,527L1280,651L1403,527Z" fill="#162d69" stroke="#162d69"/><path d="M1403,527L1280,651L1432,630Z" fill="#161b4f" stroke="#161b4f"/><path d="M1403,527L1432,630L1541,533Z" fill="#162152" stroke="#162152"/><path d="M1541,533L1432,630L1576,732Z" fill="#160e2c" stroke="#160e2c"/><path d="M-48,629L-104,862L47,828Z" fill="#908080" stroke="#908080"/><path d="M-48,629L47,828L48,636Z" fill="#8c7d8e" stroke="#8c7d8e"/><path d="M48,636L47,828L218,800Z" fill="#85787d" stroke="#85787d"/><path d="M48,636L218,800L229,624Z" fill="#80758f" stroke="#80758f"/><path d="M229,624L218,800L349,653Z" fill="#78708a" stroke="#78708a"/><path d="M349,653L218,800L401,792Z" fill="#726c77" stroke="#726c77"/><path d="M349,653L401,792L467,731Z" fill="#676876" stroke="#676876"/><path d="M467,731L401,792L538,869Z" fill="#5e6470" stroke="#5e6470"/><path d="M467,731L538,869L688,779Z" fill="#4d5b6d" stroke="#4d5b6d"/><path d="M467,731L688,779L711,709Z" fill="#44556a" stroke="#44556a"/><path d="M711,709L688,779L810,777Z" fill="#354b64" stroke="#354b64"/><path d="M711,709L810,777L783,629Z" fill="#31476e" stroke="#31476e"/><path d="M1011,734L810,777L995,853Z" fill="#1f3558" stroke="#1f3558"/><path d="M1011,734L995,853L1152,730Z" fill="#16294e" stroke="#16294e"/><path d="M1152,730L995,853L1169,878Z" fill="#162345" stroke="#162345"/><path d="M1152,730L1169,878L1305,768Z" fill="#161734" stroke="#161734"/><path d="M1152,730L1305,768L1280,651Z" fill="#161336" stroke="#161336"/><path d="M1280,651L1305,768L1432,630Z" fill="#160a34" stroke="#160a34"/><path d="M1432,630L1305,768L1483,806Z" fill="#160214" stroke="#160214"/><path d="M1432,630L1483,806L1576,732Z" fill="#16000a" stroke="#16000a"/><path d="M1576,732L1483,806L1547,802Z" fill="#160000" stroke="#160000"/><path d="M-104,862L1169,878L538,869Z" fill="#525d6e" stroke="#525d6e"/><path d="M-104,862L538,869L47,828Z" fill="#80757b" stroke="#80757b"/><path d="M47,828L538,869L218,800Z" fill="#776f79" stroke="#776f79"/><path d="M218,800L538,869L401,792Z" fill="#696974" stroke="#696974"/><path d="M538,869L1169,878L995,853Z" fill="#22395b" stroke="#22395b"/><path d="M538,869L995,853L810,777Z" fill="#2f4662" stroke="#2f4662"/><path d="M538,869L810,777L688,779Z" fill="#3d5067" stroke="#3d5067"/><path d="M1169,878L1547,802L1483,806Z" fill="#160215" stroke="#160215"/><path d="M1169,878L1483,806L1305,768Z" fill="#160b22" stroke="#160b22"/></g></svg>