<svg width="1366" height="578" xmlns="http://www.w3.org/2000/svg"><g><path d="M-26,-110L-115,123L107,114Z" fill="#ffffff" stroke="#ffffff"/><path d="M-26,-110L107,114L63,-97Z" fill="#fdfdfd" stroke="#fdfdfd"/><path d="M-26,-110L63,-97L678,-109Z" fill="#f1f1f1" stroke="#f1f1f1"/><path d="M-26,-110L678,-109L1004,-124Z" fill="#d2d2d2" stroke="#d2d2d2"/><path d="M63,-97L107,114L219,-83Z" fill="#f9f9f9" stroke="#f9f9f9"/><path d="M63,-97L219,-83L678,-109Z" fill="#ebebeb" stroke="#ebebeb"/><path d="M219,-83L107,114L174,120Z" fill="#f7f7f7" stroke="#f7f7f7"/><path d="M219,-83L174,120L413,20Z" fill="#efefef" stroke="#efefef"/><path d="M219,-83L413,20L399,-68Z" fill="#e9e9e9" stroke="#e9e9e9"/><path d="M219,-83L399,-68L678,-109Z" fill="#e0e0e0" stroke="#e0e0e0"/><path d="M399,-68L413,20L473,33Z" fill="#e1e1e1" stroke="#e1e1e1"/><path d="M399,-68L473,33L555,-55Z" fill="#dcdcdc" stroke="#dcdcdc"/><path d="M399,-68L555,-55L678,-109Z" fill="#d3d3d3" stroke="#d3d3d3"/><path d="M555,-55L473,33L691,109Z" fill="#cfcfcf" stroke="#cfcfcf"/><path d="M555,-55L691,109L678,-109Z" fill="#c7c7c7" stroke="#c7c7c7"/><path d="M678,-109L691,109L840,-47Z" fill="#bcbcbc" stroke="#bcbcbc"/><path d="M678,-109L840,-47L1004,-124Z" fill="#b0b0b0" stroke="#b0b0b0"/><path d="M840,-47L691,109L765,127Z" fill="#b9b9b9" stroke="#b9b9b9"/><path d="M840,-47L765,127L920,34Z" fill="#b0b0b0" stroke="#b0b0b0"/><path d="M840,-47L920,34L1004,-124Z" fill="#a7a7a7" stroke="#a7a7a7"/><path d="M1004,-124L920,34L1072,82Z" fill="#9c9c9c" stroke="#9c9c9c"/><path d="M1004,-124L1072,82L1136,-120Z" fill="#919191" stroke="#919191"/><path d="M1136,-120L1072,82L1251,-67Z" fill="#878787" stroke="#878787"/><path d="M1136,-120L1251,-67L1516,-38Z" fill="#808080" stroke="#808080"/><path d="M1251,-67L1072,82L1267,66Z" fill="#828282" stroke="#828282"/><path d="M1251,-67L1267,66L1444,36Z" fill="#808080" stroke="#808080"/><path d="M1251,-67L1444,36L1483,-20Z" fill="#808080" stroke="#808080"/><path d="M1251,-67L1483,-20L1516,-38Z" fill="#808080" stroke="#808080"/><path d="M1483,-20L1444,36L1619,95Z" fill="#808080" stroke="#808080"/><path d="M1483,-20L1619,95L1516,-38Z" fill="#808080" stroke="#808080"/><path d="M-115,123L-108,699L-72,576Z" fill="#949494" stroke="#949494"/><path d="M-115,123L-72,576L-24,409Z" fill="#b6b6b6" stroke="#b6b6b6"/><path d="M-115,123L-24,409L-18,267Z" fill="#d6d6d6" stroke="#d6d6d6"/><path d="M-115,123L-18,267L64,182Z" fill="#f1f1f1" stroke="#f1f1f1"/><path d="M-115,123L64,182L107,114Z" fill="#fcfcfc" stroke="#fcfcfc"/><path d="M107,114L64,182L174,120Z" fill="#f7f7f7" stroke="#f7f7f7"/><path d="M174,120L64,182L281,220Z" fill="#ececec" stroke="#ececec"/><path d="M174,120L281,220L413,20Z" fill="#ededed" stroke="#ededed"/><path d="M413,20L281,220L343,219Z" fill="#e3e3e3" stroke="#e3e3e3"/><path d="M413,20L343,219L473,33Z" fill="#e2e2e2" stroke="#e2e2e2"/><path d="M473,33L343,219L527,267Z" fill="#d4d4d4" stroke="#d4d4d4"/><path d="M473,33L527,267L640,224Z" fill="#c8c8c8" stroke="#c8c8c8"/><path d="M473,33L640,224L691,109Z" fill="#cbcbcb" stroke="#cbcbcb"/><path d="M691,109L640,224L778,209Z" fill="#b4b4b4" stroke="#b4b4b4"/><path d="M691,109L778,209L765,127Z" fill="#b6b6b6" stroke="#b6b6b6"/><path d="M765,127L778,209L920,34Z" fill="#b2b2b2" stroke="#b2b2b2"/><path d="M920,34L778,209L1030,236Z" fill="#a1a1a1" stroke="#a1a1a1"/><path d="M920,34L1030,236L1072,82Z" fill="#9a9a9a" stroke="#9a9a9a"/><path d="M1072,82L1030,236L1153,172Z" fill="#888888" stroke="#888888"/><path d="M1072,82L1153,172L1267,66Z" fill="#868686" stroke="#868686"/><path d="M1267,66L1153,172L1236,177Z" fill="#7d7d7d" stroke="#7d7d7d"/><path d="M1267,66L1236,177L1444,36Z" fill="#808080" stroke="#808080"/><path d="M1444,36L1236,177L1447,282Z" fill="#777777" stroke="#777777"/><path d="M1444,36L1447,282L1589,204Z" fill="#757575" stroke="#757575"/><path d="M1444,36L1589,204L1619,95Z" fill="#808080" stroke="#808080"/><path d="M1619,95L1589,204L1592,337Z" fill="#6a6a6a" stroke="#6a6a6a"/><path d="M1619,95L1592,337L1561,681Z" fill="#363636" stroke="#363636"/><path d="M-18,267L-24,409L118,371Z" fill="#bababa" stroke="#bababa"/><path d="M-18,267L118,371L64,182Z" fill="#d1d1d1" stroke="#d1d1d1"/><path d="M64,182L118,371L281,220Z" fill="#d1d1d1" stroke="#d1d1d1"/><path d="M281,220L118,371L245,420Z" fill="#b3b3b3" stroke="#b3b3b3"/><path d="M281,220L245,420L338,433Z" fill="#a7a7a7" stroke="#a7a7a7"/><path d="M281,220L338,433L343,219Z" fill="#bababa" stroke="#bababa"/><path d="M343,219L338,433L483,408Z" fill="#9f9f9f" stroke="#9f9f9f"/><path d="M343,219L483,408L527,267Z" fill="#ababab" stroke="#ababab"/><path d="M527,267L483,408L673,318Z" fill="#939393" stroke="#939393"/><path d="M527,267L673,318L640,224Z" fill="#a0a0a0" stroke="#a0a0a0"/><path d="M640,224L673,318L778,209Z" fill="#9d9d9d" stroke="#9d9d9d"/><path d="M778,209L673,318L884,392Z" fill="#818181" stroke="#818181"/><path d="M778,209L884,392L1030,236Z" fill="#7d7d7d" stroke="#7d7d7d"/><path d="M1030,236L884,392L965,408Z" fill="#5f5f5f" stroke="#5f5f5f"/><path d="M1030,236L965,408L1074,347Z" fill="#5a5a5a" stroke="#5a5a5a"/><path d="M1030,236L1074,347L1153,172Z" fill="#6b6b6b" stroke="#6b6b6b"/><path d="M1153,172L1074,347L1236,177Z" fill="#6a6a6a" stroke="#6a6a6a"/><path d="M1236,177L1074,347L1280,392Z" fill="#4c4c4c" stroke="#4c4c4c"/><path d="M1236,177L1280,392L1447,282Z" fill="#515151" stroke="#515151"/><path d="M1447,282L1280,392L1411,370Z" fill="#3d3d3d" stroke="#3d3d3d"/><path d="M1447,282L1411,370L1592,337Z" fill="#424242" stroke="#424242"/><path d="M1447,282L1592,337L1589,204Z" fill="#545454" stroke="#545454"/><path d="M-24,409L-72,576L76,552Z" fill="#8f8f8f" stroke="#8f8f8f"/><path d="M-24,409L76,552L118,371Z" fill="#959595" stroke="#959595"/><path d="M118,371L76,552L247,486Z" fill="#8c8c8c" stroke="#8c8c8c"/><path d="M118,371L247,486L245,420Z" fill="#949494" stroke="#949494"/><path d="M245,420L247,486L338,433Z" fill="#868686" stroke="#868686"/><path d="M338,433L247,486L377,571Z" fill="#7c7c7c" stroke="#7c7c7c"/><path d="M338,433L377,571L483,408Z" fill="#777777" stroke="#777777"/><path d="M483,408L377,571L489,567Z" fill="#6e6e6e" stroke="#6e6e6e"/><path d="M483,408L489,567L659,495Z" fill="#656565" stroke="#656565"/><path d="M483,408L659,495L673,318Z" fill="#747474" stroke="#747474"/><path d="M673,318L659,495L811,516Z" fill="#585858" stroke="#585858"/><path d="M673,318L811,516L884,392Z" fill="#5d5d5d" stroke="#5d5d5d"/><path d="M884,392L811,516L928,489Z" fill="#414141" stroke="#414141"/><path d="M884,392L928,489L965,408Z" fill="#464646" stroke="#464646"/><path d="M965,408L928,489L1113,499Z" fill="#303030" stroke="#303030"/><path d="M965,408L1113,499L1074,347Z" fill="#383838" stroke="#383838"/><path d="M1074,347L1113,499L1280,392Z" fill="#2d2d2d" stroke="#2d2d2d"/><path d="M1280,392L1113,499L1305,579Z" fill="#121212" stroke="#121212"/><path d="M1280,392L1305,579L1468,495Z" fill="#121212" stroke="#121212"/><path d="M1280,392L1468,495L1411,370Z" fill="#232323" stroke="#232323"/><path d="M1411,370L1468,495L1592,337Z" fill="#2b2b2b" stroke="#2b2b2b"/><path d="M1592,337L1468,495L1521,557Z" fill="#151515" stroke="#151515"/><path d="M1592,337L1521,557L1561,681Z" fill="#0e0e0e" stroke="#0e0e0e"/><path d="M-72,576L-108,699L103,693Z" fill="#808080" stroke="#808080"/><path d="M-72,576L103,693L76,552Z" fill="#838383" stroke="#838383"/><path d="M76,552L103,693L225,627Z" fill="#7c7c7c" stroke="#7c7c7c"/><path d="M76,552L225,627L247,486Z" fill="#808080" stroke="#808080"/><path d="M247,486L225,627L377,571Z" fill="#787878" stroke="#787878"/><path d="M377,571L225,627L376,621Z" fill="#707070" stroke="#707070"/><path d="M377,571L376,621L489,567Z" fill="#6a6a6a" stroke="#6a6a6a"/><path d="M489,567L376,621L542,692Z" fill="#5f5f5f" stroke="#5f5f5f"/><path d="M489,567L542,692L659,495Z" fill="#585858" stroke="#585858"/><path d="M659,495L542,692L656,729Z" fill="#4b4b4b" stroke="#4b4b4b"/><path d="M659,495L656,729L805,699Z" fill="#414141" stroke="#414141"/><path d="M659,495L805,699L811,516Z" fill="#434343" stroke="#434343"/><path d="M811,516L805,699L984,677Z" fill="#313131" stroke="#313131"/><path d="M811,516L984,677L928,489Z" fill="#343434" stroke="#343434"/><path d="M928,489L984,677L1113,499Z" fill="#252525" stroke="#252525"/><path d="M1113,499L984,677L1179,660Z" fill="#141414" stroke="#141414"/><path d="M1113,499L1179,660L1305,579Z" fill="#0a0a0a" stroke="#0a0a0a"/><path d="M1305,579L1179,660L1237,704Z" fill="#010101" stroke="#010101"/><path d="M1305,579L1237,704L1411,685Z" fill="#000000" stroke="#000000"/><path d="M1305,579L1411,685L1468,495Z" fill="#070707" stroke="#070707"/><path d="M1468,495L1411,685L1521,557Z" fill="#080808" stroke="#080808"/><path d="M1521,557L1411,685L1561,681Z" fill="#010101" stroke="#010101"/><path d="M-108,699L656,729L103,693Z" fill="#737373" stroke="#737373"/><path d="M103,693L656,729L542,692Z" fill="#616161" stroke="#616161"/><path d="M103,693L542,692L376,621Z" fill="#696969" stroke="#696969"/><path d="M103,693L376,621L225,627Z" fill="#727272" stroke="#727272"/><path d="M656,729L1237,704L805,699Z" fill="#2a2a2a" stroke="#2a2a2a"/><path d="M805,699L1237,704L984,677Z" fill="#1b1b1b" stroke="#1b1b1b"/><path d="M984,677L1237,704L1179,660Z" fill="#0a0a0a" stroke="#0a0a0a"/><path d="M1237,704L1561,681L1411,685Z" fill="#000000" stroke="#000000"/></g></svg>