<svg width="1366" height="628" xmlns="http://www.w3.org/2000/svg"><g><path d="M-48,-27L-114,122L60,55Z" fill="#cd3039" stroke="#cd3039"/><path d="M-48,-27L60,55L48,-133Z" fill="#bc1028" stroke="#bc1028"/><path d="M48,-133L60,55L274,-92Z" fill="#c1272d" stroke="#c1272d"/><path d="M48,-133L274,-92L481,-100Z" fill="#c04436" stroke="#c04436"/><path d="M48,-133L481,-100L919,-132Z" fill="#c6695e" stroke="#c6695e"/><path d="M274,-92L60,55L219,108Z" fill="#dd5048" stroke="#dd5048"/><path d="M274,-92L219,108L334,-24Z" fill="#de5550" stroke="#de5550"/><path d="M274,-92L334,-24L481,-100Z" fill="#d1564c" stroke="#d1564c"/><path d="M334,-24L219,108L426,48Z" fill="#ef7764" stroke="#ef7764"/><path d="M334,-24L426,48L481,-100Z" fill="#df6363" stroke="#df6363"/><path d="M481,-100L426,48L563,93Z" fill="#ec837c" stroke="#ec837c"/><path d="M481,-100L563,93L627,28Z" fill="#e58485" stroke="#e58485"/><path d="M481,-100L627,28L711,-91Z" fill="#ce717b" stroke="#ce717b"/><path d="M481,-100L711,-91L919,-132Z" fill="#b17177" stroke="#b17177"/><path d="M711,-91L627,28L870,21Z" fill="#c5788b" stroke="#c5788b"/><path d="M711,-91L870,21L852,-104Z" fill="#ab677c" stroke="#ab677c"/><path d="M711,-91L852,-104L919,-132Z" fill="#9a6571" stroke="#9a6571"/><path d="M852,-104L870,21L919,-132Z" fill="#9a5f74" stroke="#9a5f74"/><path d="M919,-132L870,21L1018,85Z" fill="#9e6480" stroke="#9e6480"/><path d="M919,-132L1018,85L1152,-52Z" fill="#824a72" stroke="#824a72"/><path d="M919,-132L1152,-52L1268,-86Z" fill="#6a3e5e" stroke="#6a3e5e"/><path d="M1152,-52L1018,85L1138,96Z" fill="#906681" stroke="#906681"/><path d="M1152,-52L1138,96L1223,37Z" fill="#855578" stroke="#855578"/><path d="M1152,-52L1223,37L1268,-86Z" fill="#703165" stroke="#703165"/><path d="M1268,-86L1223,37L1467,-22Z" fill="#682861" stroke="#682861"/><path d="M1268,-86L1467,-22L1537,-27Z" fill="#5e1554" stroke="#5e1554"/><path d="M1467,-22L1223,37L1481,93Z" fill="#743d6c" stroke="#743d6c"/><path d="M1467,-22L1481,93L1537,-27Z" fill="#6e2560" stroke="#6e2560"/><path d="M1537,-27L1481,93L1578,100Z" fill="#793468" stroke="#793468"/><path d="M-114,122L-134,642L-93,527Z" fill="#8e6784" stroke="#8e6784"/><path d="M-114,122L-93,527L-66,435Z" fill="#b67a8c" stroke="#b67a8c"/><path d="M-114,122L-66,435L-35,220Z" fill="#d08088" stroke="#d08088"/><path d="M-114,122L-35,220L60,55Z" fill="#d65b56" stroke="#d65b56"/><path d="M60,55L-35,220L93,199Z" fill="#dd7868" stroke="#dd7868"/><path d="M60,55L93,199L219,108Z" fill="#e67661" stroke="#e67661"/><path d="M219,108L93,199L230,212Z" fill="#ec9b7e" stroke="#ec9b7e"/><path d="M219,108L230,212L369,269Z" fill="#f4b699" stroke="#f4b699"/><path d="M219,108L369,269L426,48Z" fill="#f9ad88" stroke="#f9ad88"/><path d="M426,48L369,269L563,93Z" fill="#fdbc9d" stroke="#fdbc9d"/><path d="M563,93L369,269L582,225Z" fill="#fedec4" stroke="#fedec4"/><path d="M563,93L582,225L716,206Z" fill="#f0dac7" stroke="#f0dac7"/><path d="M563,93L716,206L627,28Z" fill="#eebaad" stroke="#eebaad"/><path d="M627,28L716,206L870,21Z" fill="#deaaa6" stroke="#deaaa6"/><path d="M870,21L716,206L776,251Z" fill="#d5ccc1" stroke="#d5ccc1"/><path d="M870,21L776,251L930,195Z" fill="#c8c4bc" stroke="#c8c4bc"/><path d="M870,21L930,195L1018,85Z" fill="#b59b9f" stroke="#b59b9f"/><path d="M1018,85L930,195L1087,200Z" fill="#a4afb2" stroke="#a4afb2"/><path d="M1018,85L1087,200L1138,96Z" fill="#9c959f" stroke="#9c959f"/><path d="M1138,96L1087,200L1225,169Z" fill="#959ba6" stroke="#959ba6"/><path d="M1138,96L1225,169L1223,37Z" fill="#90788d" stroke="#90788d"/><path d="M1223,37L1225,169L1451,182Z" fill="#867992" stroke="#867992"/><path d="M1223,37L1451,182L1481,93Z" fill="#806181" stroke="#806181"/><path d="M1481,93L1451,182L1525,191Z" fill="#806e90" stroke="#806e90"/><path d="M1481,93L1525,191L1578,100Z" fill="#805a82" stroke="#805a82"/><path d="M1578,100L1525,191L1558,349Z" fill="#807ca9" stroke="#807ca9"/><path d="M1578,100L1558,349L1584,549Z" fill="#747ebc" stroke="#747ebc"/><path d="M1578,100L1584,549L1589,846Z" fill="#214eac" stroke="#214eac"/><path d="M-35,220L-66,435L36,324Z" fill="#cd8693" stroke="#cd8693"/><path d="M-35,220L36,324L93,199Z" fill="#dc9291" stroke="#dc9291"/><path d="M93,199L36,324L230,212Z" fill="#e5a599" stroke="#e5a599"/><path d="M230,212L36,324L264,411Z" fill="#e7b1a7" stroke="#e7b1a7"/><path d="M230,212L264,411L369,269Z" fill="#f3c7b6" stroke="#f3c7b6"/><path d="M369,269L264,411L426,363Z" fill="#e7d0c3" stroke="#e7d0c3"/><path d="M369,269L426,363L582,225Z" fill="#fbe5d5" stroke="#fbe5d5"/><path d="M582,225L426,363L551,432Z" fill="#eeeae4" stroke="#eeeae4"/><path d="M582,225L551,432L688,415Z" fill="#dbebef" stroke="#dbebef"/><path d="M582,225L688,415L716,206Z" fill="#e9f2f2" stroke="#e9f2f2"/><path d="M716,206L688,415L776,251Z" fill="#deeef3" stroke="#deeef3"/><path d="M776,251L688,415L852,329Z" fill="#cce7f3" stroke="#cce7f3"/><path d="M776,251L852,329L930,195Z" fill="#c8e2e8" stroke="#c8e2e8"/><path d="M930,195L852,329L918,374Z" fill="#bcdbea" stroke="#bcdbea"/><path d="M930,195L918,374L1087,200Z" fill="#abd0de" stroke="#abd0de"/><path d="M1087,200L918,374L1147,418Z" fill="#94c4df" stroke="#94c4df"/><path d="M1087,200L1147,418L1225,169Z" fill="#93b8d3" stroke="#93b8d3"/><path d="M1225,169L1147,418L1309,398Z" fill="#83add4" stroke="#83add4"/><path d="M1225,169L1309,398L1451,182Z" fill="#83a1c5" stroke="#83a1c5"/><path d="M1451,182L1309,398L1378,412Z" fill="#7598c9" stroke="#7598c9"/><path d="M1451,182L1378,412L1558,349Z" fill="#7d90c4" stroke="#7d90c4"/><path d="M1451,182L1558,349L1525,191Z" fill="#8089b8" stroke="#8089b8"/><path d="M-66,435L-93,527L113,560Z" fill="#765482" stroke="#765482"/><path d="M-66,435L113,560L36,324Z" fill="#977692" stroke="#977692"/><path d="M36,324L113,560L264,411Z" fill="#a7909d" stroke="#a7909d"/><path d="M264,411L113,560L262,479Z" fill="#948ca0" stroke="#948ca0"/><path d="M264,411L262,479L416,484Z" fill="#a8aab3" stroke="#a8aab3"/><path d="M264,411L416,484L426,363Z" fill="#c2c2c2" stroke="#c2c2c2"/><path d="M426,363L416,484L551,432Z" fill="#c0cfd5" stroke="#c0cfd5"/><path d="M551,432L416,484L509,522Z" fill="#a4bfd3" stroke="#a4bfd3"/><path d="M551,432L509,522L664,518Z" fill="#9ac0dc" stroke="#9ac0dc"/><path d="M551,432L664,518L688,415Z" fill="#a1cfe9" stroke="#a1cfe9"/><path d="M688,415L664,518L873,561Z" fill="#7fbbe5" stroke="#7fbbe5"/><path d="M688,415L873,561L852,329Z" fill="#90cdeb" stroke="#90cdeb"/><path d="M852,329L873,561L918,374Z" fill="#88c9e9" stroke="#88c9e9"/><path d="M918,374L873,561L992,561Z" fill="#59a6d9" stroke="#59a6d9"/><path d="M918,374L992,561L1147,418Z" fill="#57aada" stroke="#57aada"/><path d="M1147,418L992,561L1161,494Z" fill="#3d90ce" stroke="#3d90ce"/><path d="M1147,418L1161,494L1309,398Z" fill="#4c96cf" stroke="#4c96cf"/><path d="M1309,398L1161,494L1300,567Z" fill="#2f7dc4" stroke="#2f7dc4"/><path d="M1309,398L1300,567L1378,412Z" fill="#327ec3" stroke="#327ec3"/><path d="M1378,412L1300,567L1443,491Z" fill="#236dbb" stroke="#236dbb"/><path d="M1378,412L1443,491L1558,349Z" fill="#487cc0" stroke="#487cc0"/><path d="M1558,349L1443,491L1584,549Z" fill="#2d62b5" stroke="#2d62b5"/><path d="M-93,527L-134,642L113,560Z" fill="#623873" stroke="#623873"/><path d="M113,560L-134,642L119,706Z" fill="#5d3270" stroke="#5d3270"/><path d="M113,560L119,706L173,641Z" fill="#67487a" stroke="#67487a"/><path d="M113,560L173,641L262,479Z" fill="#7d6c8d" stroke="#7d6c8d"/><path d="M262,479L173,641L337,632Z" fill="#7d7295" stroke="#7d7295"/><path d="M262,479L337,632L416,484Z" fill="#9295aa" stroke="#9295aa"/><path d="M416,484L337,632L509,522Z" fill="#919db8" stroke="#919db8"/><path d="M509,522L337,632L493,709Z" fill="#7e87b0" stroke="#7e87b0"/><path d="M509,522L493,709L664,518Z" fill="#84a0c9" stroke="#84a0c9"/><path d="M664,518L493,709L733,664Z" fill="#7092ca" stroke="#7092ca"/><path d="M664,518L733,664L873,561Z" fill="#679dd5" stroke="#679dd5"/><path d="M873,561L733,664L803,685Z" fill="#5386c9" stroke="#5386c9"/><path d="M873,561L803,685L945,627Z" fill="#4583c7" stroke="#4583c7"/><path d="M873,561L945,627L992,561Z" fill="#4188c9" stroke="#4188c9"/><path d="M992,561L945,627L1145,619Z" fill="#2774bf" stroke="#2774bf"/><path d="M992,561L1145,619L1161,494Z" fill="#2c79c2" stroke="#2c79c2"/><path d="M1161,494L1145,619L1300,567Z" fill="#216bba" stroke="#216bba"/><path d="M1300,567L1145,619L1315,671Z" fill="#0c50ac" stroke="#0c50ac"/><path d="M1300,567L1315,671L1414,678Z" fill="#023ea3" stroke="#023ea3"/><path d="M1300,567L1414,678L1443,491Z" fill="#0c4dab" stroke="#0c4dab"/><path d="M1443,491L1414,678L1584,549Z" fill="#0e42a6" stroke="#0e42a6"/><path d="M1584,549L1414,678L1557,683Z" fill="#002797" stroke="#002797"/><path d="M1584,549L1557,683L1589,846Z" fill="#000c8a" stroke="#000c8a"/><path d="M-134,642L-57,847L119,706Z" fill="#570759" stroke="#570759"/><path d="M119,706L-57,847L54,854Z" fill="#5d1453" stroke="#5d1453"/><path d="M119,706L54,854L178,883Z" fill="#662559" stroke="#662559"/><path d="M119,706L178,883L173,641Z" fill="#6a2d69" stroke="#6a2d69"/><path d="M173,641L178,883L337,632Z" fill="#703f78" stroke="#703f78"/><path d="M337,632L178,883L412,767Z" fill="#774c7d" stroke="#774c7d"/><path d="M337,632L412,767L493,709Z" fill="#7c669b" stroke="#7c669b"/><path d="M493,709L412,767L506,791Z" fill="#7e679d" stroke="#7e679d"/><path d="M493,709L506,791L688,828Z" fill="#786fa8" stroke="#786fa8"/><path d="M493,709L688,828L733,664Z" fill="#6f71b8" stroke="#6f71b8"/><path d="M733,664L688,828L803,685Z" fill="#5e6dbc" stroke="#5e6dbc"/><path d="M803,685L688,828L785,884Z" fill="#5b6cae" stroke="#5b6cae"/><path d="M803,685L785,884L1022,864Z" fill="#4560a6" stroke="#4560a6"/><path d="M803,685L1022,864L945,627Z" fill="#3959b1" stroke="#3959b1"/><path d="M945,627L1022,864L1145,619Z" fill="#2050ac" stroke="#2050ac"/><path d="M1145,619L1022,864L1147,875Z" fill="#1a3f99" stroke="#1a3f99"/><path d="M1145,619L1147,875L1252,841Z" fill="#123595" stroke="#123595"/><path d="M1145,619L1252,841L1315,671Z" fill="#0d339d" stroke="#0d339d"/><path d="M1315,671L1252,841L1414,678Z" fill="#042294" stroke="#042294"/><path d="M1414,678L1252,841L1432,882Z" fill="#001d85" stroke="#001d85"/><path d="M1414,678L1432,882L1557,683Z" fill="#000f87" stroke="#000f87"/><path d="M1557,683L1432,882L1589,846Z" fill="#000879" stroke="#000879"/><path d="M-57,847L178,883L54,854Z" fill="#5f194b" stroke="#5f194b"/><path d="M178,883L785,884L506,791Z" fill="#7e6a90" stroke="#7e6a90"/><path d="M178,883L506,791L412,767Z" fill="#7b577e" stroke="#7b577e"/><path d="M506,791L785,884L688,828Z" fill="#6c72a9" stroke="#6c72a9"/><path d="M785,884L1432,882L1147,875Z" fill="#183d87" stroke="#183d87"/><path d="M785,884L1147,875L1022,864Z" fill="#2b5091" stroke="#2b5091"/><path d="M1147,875L1432,882L1252,841Z" fill="#09287f" stroke="#09287f"/></g></svg>